<?xml version="1.0" encoding="UTF-8" standalone="no"?>
<svg width="52px" height="44px" viewBox="0 0 52 44" version="1.1" xmlns="http://www.w3.org/2000/svg" xmlns:xlink="http://www.w3.org/1999/xlink" xmlns:sketch="http://www.bohemiancoding.com/sketch/ns">
    <!-- Generator: Sketch 3.2.1 (9971) - http://www.bohemiancoding.com/sketch -->
    <title>logo</title>
    <desc>Created with Sketch.</desc>
    <defs></defs>
    <g id="Page-1" stroke="none" stroke-width="1" fill="none" fill-rule="evenodd" sketch:type="MSPage">
        <path d="M11.8663109,3.51341672 C11.8663109,3.51341672 16.1260819,0.641299786 24.1610079,1.03752614 C32.1962755,1.43375249 46.0397628,2.9194266 49.7186093,11.3380136 C53.3971143,19.7569501 48.8648109,31.8649146 39.8439185,37.7828032 C30.8233676,43.7010412 18.9333711,44.121726 10.995095,41.3484909 C3.05681901,38.5752559 -0.525036044,30.2849008 1.60467869,21.9997869 C3.73439343,13.7150223 4.60560932,8.26778352 11.8663109,3.51341672 L11.8663109,3.51341672 Z M31.3988277,19.681129 L36.0913038,19.681129 L36.0913038,13.9889566 L31.3988277,13.9889566 L31.3988277,19.681129 Z M23.8707165,29.6612112 C23.8707165,29.6612112 24.0643579,31.4442298 25.5164983,32.7317907 C26.9686386,34.0193517 26.0393644,36.1982472 24.6644075,35.9009027 C23.289792,35.6039077 22.7088676,34.499086 22.9991591,32.8726013 C23.289792,31.2461166 23.8707165,29.6612112 23.8707165,29.6612112 L23.8707165,29.6612112 Z M11.5760195,30.5525458 C11.5760195,30.5525458 10.3175206,25.6004152 13.2218013,23.3222884 C16.1260819,21.044511 19.2236625,21.3415061 21.0630858,19.2614924 C22.9025091,17.1818282 23.773725,14.1112487 23.773725,14.1112487 M9.71405592,28.6475845 C9.71405592,28.6475845 8.45555707,23.695454 11.3598377,21.4173272 C11.9073537,20.9879198 12.4617395,20.6500196 13.0132704,20.3704498 C15.3873174,19.1670503 17.7084677,19.0444199 19.2011222,17.3565312 C21.0405455,15.2765175 21.9117614,12.2062874 21.9117614,12.2062874" id="logo" stroke="#000000" stroke-linejoin="bevel" sketch:type="MSShapeGroup"></path>
    </g>
</svg>