<?xml version="1.0" encoding="UTF-8" standalone="no"?>
<svg width="54px" height="46px" viewBox="0 0 54 46" version="1.1" xmlns="http://www.w3.org/2000/svg" xmlns:xlink="http://www.w3.org/1999/xlink" xmlns:sketch="http://www.bohemiancoding.com/sketch/ns">
    <!-- Generator: Sketch 3.2.1 (9971) - http://www.bohemiancoding.com/sketch -->
    <title>Slice 1</title>
    <desc>Created with Sketch.</desc>
    <defs></defs>
    <g id="Page-1" stroke="none" stroke-width="1" fill="none" fill-rule="evenodd" sketch:type="MSPage">
        <path d="M12.8663109,4.51341672 C12.8663109,4.51341672 17.1260819,1.64129979 25.1610079,2.03752614 C33.1962755,2.43375249 47.0397628,3.9194266 50.7186093,12.3380136 C54.3971143,20.7569501 49.8648109,32.8649146 40.8439185,38.7828032 C31.8233676,44.7010412 19.9333711,45.121726 11.995095,42.3484909 C4.05681901,39.5752559 0.474963956,31.2849008 2.60467869,22.9997869 C4.73439343,14.7150223 5.60560932,9.26778352 12.8663109,4.51341672 L12.8663109,4.51341672 Z M32.3988277,20.681129 L37.0913038,20.681129 L37.0913038,14.9889566 L32.3988277,14.9889566 L32.3988277,20.681129 Z M24.8707165,30.6612112 C24.8707165,30.6612112 25.0643579,32.4442298 26.5164983,33.7317907 C27.9686386,35.0193517 27.0393644,37.1982472 25.6644075,36.9009027 C24.289792,36.6039077 23.7088676,35.499086 23.9991591,33.8726013 C24.289792,32.2461166 24.8707165,30.6612112 24.8707165,30.6612112 L24.8707165,30.6612112 Z M12.5760195,31.5525458 C12.5760195,31.5525458 11.3175206,26.6004152 14.2218013,24.3222884 C17.1260819,22.044511 20.2236625,22.3415061 22.0630858,20.2614924 C23.9025091,18.1818282 24.773725,15.1112487 24.773725,15.1112487 M10.7140559,29.6475845 C10.7140559,29.6475845 9.45555707,24.695454 12.3598377,22.4173272 C12.9073537,21.9879198 13.4617395,21.6500196 14.0132704,21.3704498 C16.3873174,20.1670503 18.7084677,20.0444199 20.2011222,18.3565312 C22.0405455,16.2765175 22.9117614,13.2062874 22.9117614,13.2062874" id="logo" stroke="#000000" stroke-linejoin="bevel" sketch:type="MSShapeGroup"></path>
    </g>
</svg>